<svg xmlns="http://www.w3.org/2000/svg" width="1400" height="700" viewBox="0 0 1400 700" fill="none">
  <defs>
    <linearGradient id="bg" x1="0" y1="0" x2="1400" y2="700" gradientUnits="userSpaceOnUse">
      <stop offset="0" stop-color="#0b0f14"/>
      <stop offset="0.55" stop-color="#141b2a"/>
      <stop offset="1" stop-color="#1b2a3a"/>
    </linearGradient>
    <linearGradient id="accent" x1="0" y1="0" x2="1" y2="1">
      <stop offset="0" stop-color="#6ee7b7"/>
      <stop offset="1" stop-color="#60a5fa"/>
    </linearGradient>
  </defs>
  <rect width="1400" height="700" fill="url(#bg)"/>
  <circle cx="200" cy="140" r="110" fill="#1f2937" opacity="0.45"/>
  <circle cx="1180" cy="120" r="90" fill="#0f172a" opacity="0.7"/>
  <circle cx="1120" cy="560" r="150" fill="#111827" opacity="0.65"/>
  <rect x="140" y="420" width="1120" height="6" rx="3" fill="#1f2937"/>
  <rect x="140" y="468" width="980" height="6" rx="3" fill="#111827"/>
  <rect x="140" y="516" width="760" height="6" rx="3" fill="#0f172a"/>
  <path d="M260 300 L470 230 L690 320 L900 220 L1140 280" stroke="url(#accent)" stroke-width="6" fill="none" stroke-linecap="round" stroke-linejoin="round"/>
  <circle cx="260" cy="300" r="10" fill="#6ee7b7"/>
  <circle cx="470" cy="230" r="10" fill="#60a5fa"/>
  <circle cx="690" cy="320" r="10" fill="#6ee7b7"/>
  <circle cx="900" cy="220" r="10" fill="#60a5fa"/>
  <circle cx="1140" cy="280" r="10" fill="#6ee7b7"/>
</svg>
