<svg xmlns="http://www.w3.org/2000/svg" width="1200" height="630" viewBox="0 0 1200 630" role="img" aria-label="Ilustracion comica e ironica sobre pedirle todo a la IA">
  <defs>
    <linearGradient id="bg" x1="0" y1="0" x2="1" y2="1">
      <stop offset="0%" stop-color="#f4f0e8" />
      <stop offset="60%" stop-color="#f7e6cf" />
      <stop offset="100%" stop-color="#f1c9a5" />
    </linearGradient>
    <linearGradient id="desk" x1="0" y1="0" x2="0" y2="1">
      <stop offset="0%" stop-color="#2d3a4b" />
      <stop offset="100%" stop-color="#1c242f" />
    </linearGradient>
    <filter id="soft" x="-20%" y="-20%" width="140%" height="140%">
      <feGaussianBlur stdDeviation="10" />
    </filter>
  </defs>

  <rect width="1200" height="630" fill="url(#bg)" />

  <g opacity="0.35">
    <circle cx="160" cy="140" r="110" fill="#f9d7b8" />
    <circle cx="1040" cy="130" r="80" fill="#f9d7b8" />
    <circle cx="980" cy="520" r="130" fill="#f2b68c" />
  </g>

  <rect x="0" y="430" width="1200" height="220" fill="url(#desk)" />

  <g transform="translate(120 240)">
    <rect x="0" y="0" width="520" height="260" rx="28" fill="#ffffff" stroke="#223041" stroke-width="6" />
    <rect x="40" y="40" width="440" height="40" rx="20" fill="#f2b68c" />
    <rect x="40" y="100" width="300" height="30" rx="15" fill="#e6a97f" />
    <rect x="40" y="150" width="360" height="30" rx="15" fill="#e6a97f" />
    <rect x="40" y="200" width="260" height="30" rx="15" fill="#e6a97f" />
    <circle cx="450" cy="190" r="46" fill="#1c242f" />
    <circle cx="450" cy="190" r="30" fill="#f2b68c" />
    <circle cx="450" cy="190" r="14" fill="#1c242f" />
  </g>

  <g transform="translate(720 160)">
    <path d="M120 0c80 0 140 64 140 140v10c0 52-30 98-74 122l12 50c4 16-10 30-26 26l-70-18c-8 2-16 2-24 2-78 0-140-62-140-140v-10C-62 64 0 0 120 0z" fill="#ffffff" stroke="#223041" stroke-width="6" />
    <circle cx="70" cy="150" r="16" fill="#223041" />
    <circle cx="130" cy="150" r="16" fill="#223041" />
    <circle cx="190" cy="150" r="16" fill="#223041" />
  </g>

  <g transform="translate(760 350)" opacity="0.85">
    <rect x="0" y="0" width="360" height="150" rx="22" fill="#f2b68c" stroke="#223041" stroke-width="5" />
    <rect x="22" y="24" width="120" height="30" rx="15" fill="#223041" />
    <rect x="160" y="24" width="178" height="30" rx="15" fill="#ffffff" />
    <rect x="22" y="78" width="270" height="24" rx="12" fill="#ffffff" />
    <circle cx="320" cy="90" r="22" fill="#223041" />
  </g>

  <g transform="translate(420 410)">
    <rect x="0" y="0" width="160" height="60" rx="12" fill="#223041" />
    <rect x="20" y="14" width="120" height="12" rx="6" fill="#f2b68c" />
    <rect x="36" y="34" width="88" height="8" rx="4" fill="#f2b68c" />
  </g>

  <g opacity="0.4" filter="url(#soft)">
    <rect x="200" y="520" width="240" height="28" rx="14" fill="#000000" />
    <rect x="770" y="540" width="260" height="26" rx="13" fill="#000000" />
  </g>
</svg>
