<svg xmlns="http://www.w3.org/2000/svg" width="1200" height="630" viewBox="0 0 1200 630" role="img" aria-label="aws bash toolbox feature image">
  <defs>
    <linearGradient id="bg" x1="0" y1="0" x2="1" y2="1">
      <stop offset="0%" stop-color="#0b1f2a" />
      <stop offset="100%" stop-color="#0f2f3f" />
    </linearGradient>
    <linearGradient id="accent" x1="0" y1="0" x2="1" y2="0">
      <stop offset="0%" stop-color="#f59e0b" />
      <stop offset="100%" stop-color="#38bdf8" />
    </linearGradient>
  </defs>

  <rect width="1200" height="630" fill="url(#bg)" />

  <rect x="90" y="110" width="1020" height="410" rx="18" fill="#0b1116" stroke="#1f2937" stroke-width="2" />
  <rect x="90" y="110" width="1020" height="40" rx="18" fill="#0f172a" />
  <circle cx="120" cy="130" r="6" fill="#ef4444" />
  <circle cx="145" cy="130" r="6" fill="#f59e0b" />
  <circle cx="170" cy="130" r="6" fill="#10b981" />

  <rect x="140" y="200" width="520" height="260" rx="12" fill="#111827" stroke="#1f2937" stroke-width="2" />
  <rect x="700" y="200" width="360" height="260" rx="12" fill="#0f172a" stroke="#1f2937" stroke-width="2" />

  <text x="180" y="245" fill="#e5e7eb" font-size="20" font-family="ui-monospace, SFMono-Regular, Menlo, Monaco, Consolas, Liberation Mono, monospace">$ abt select context</text>
  <text x="180" y="280" fill="#94a3b8" font-size="18" font-family="ui-monospace, SFMono-Regular, Menlo, Monaco, Consolas, Liberation Mono, monospace">corp-dev-admin</text>
  <text x="180" y="310" fill="#94a3b8" font-size="18" font-family="ui-monospace, SFMono-Regular, Menlo, Monaco, Consolas, Liberation Mono, monospace">corp-uat-readonly</text>
  <text x="180" y="340" fill="#94a3b8" font-size="18" font-family="ui-monospace, SFMono-Regular, Menlo, Monaco, Consolas, Liberation Mono, monospace">corp-pro-support</text>

  <rect x="740" y="235" width="280" height="46" rx="8" fill="#111827" />
  <text x="760" y="265" fill="#e5e7eb" font-size="20" font-family="ui-monospace, SFMono-Regular, Menlo, Monaco, Consolas, Liberation Mono, monospace">SSO</text>

  <rect x="740" y="300" width="280" height="46" rx="8" fill="#111827" />
  <text x="760" y="330" fill="#e5e7eb" font-size="20" font-family="ui-monospace, SFMono-Regular, Menlo, Monaco, Consolas, Liberation Mono, monospace">SSM</text>

  <rect x="740" y="365" width="280" height="46" rx="8" fill="#111827" />
  <text x="760" y="395" fill="#e5e7eb" font-size="20" font-family="ui-monospace, SFMono-Regular, Menlo, Monaco, Consolas, Liberation Mono, monospace">CLI</text>

  <rect x="90" y="520" width="1020" height="8" fill="url(#accent)" />

  <text x="100" y="70" fill="#e2e8f0" font-size="26" font-family="ui-monospace, SFMono-Regular, Menlo, Monaco, Consolas, Liberation Mono, monospace">aws-bash-toolbox</text>
</svg>
